<svg xmlns="http://www.w3.org/2000/svg" xmlns:xlink="http://www.w3.org/1999/xlink" width="500" zoomAndPan="magnify" viewBox="0 0 375 374.999991" height="500" preserveAspectRatio="xMidYMid meet" version="1.0"><defs><g/><clipPath id="id1"><path d="M 179 10.246094 L 318 10.246094 L 318 206 L 179 206 Z M 179 10.246094 " clip-rule="nonzero"/></clipPath><clipPath id="id2"><path d="M 85 158 L 281 158 L 281 252.496094 L 85 252.496094 Z M 85 158 " clip-rule="nonzero"/></clipPath></defs><g clip-path="url(#id1)"><path fill="rgb(15.289307%, 58.81958%, 23.529053%)" d="M 227.910156 45.4375 C 264.050781 24.371094 289.816406 34.742188 317.324219 10.300781 C 317.324219 10.300781 324.925781 132.644531 237.847656 159.957031 C 217.722656 166.269531 202.445312 182.835938 198.277344 203.539062 C 198.160156 204.132812 198.042969 204.730469 197.929688 205.339844 C 197.929688 205.339844 183.957031 156.410156 252.8125 83.617188 C 198.605469 120.839844 181.488281 171.757812 181.488281 171.757812 C 181.488281 171.757812 164.003906 82.699219 227.910156 45.4375 " fill-opacity="1" fill-rule="nonzero"/></g><path fill="rgb(25.099182%, 72.549438%, 23.529053%)" d="M 222.6875 66.800781 C 199.183594 83.242188 188.289062 106.320312 183.808594 128.589844 C 187.554688 101.855469 199.25 70.738281 230.871094 52.304688 C 261.660156 34.355469 284.917969 39.222656 308.140625 25.941406 C 282.980469 50.269531 256.542969 43.105469 222.6875 66.800781 " fill-opacity="1" fill-rule="nonzero"/><path fill="rgb(50.19989%, 79.998779%, 15.689087%)" d="M 141.667969 99.15625 C 118.957031 84.660156 102.109375 90.664062 85.039062 74.21875 C 85.039062 74.21875 81.179688 118.625 102.117188 149.621094 C 118.390625 173.707031 142.90625 167.644531 156.421875 177.023438 C 156.421875 177.023438 142.519531 144.398438 124.65625 123.078125 C 158.574219 148.4375 168.273438 181.648438 168.273438 181.648438 C 168.273438 181.648438 181.832031 124.792969 141.667969 99.15625 " fill-opacity="1" fill-rule="nonzero"/><path fill="rgb(67.83905%, 85.488892%, 10.198975%)" d="M 143.8125 112.769531 C 157.421875 122.75 163.527344 136.464844 165.871094 149.617188 C 164.015625 133.847656 157.542969 115.394531 139.191406 104.140625 C 121.316406 93.183594 107.574219 95.742188 94.089844 87.625 C 108.570312 102.261719 124.210938 98.398438 143.8125 112.769531 " fill-opacity="1" fill-rule="nonzero"/><g clip-path="url(#id2)"><path fill="rgb(13.328552%, 53.729248%, 26.669312%)" d="M 273.832031 158.234375 C 270.398438 158.234375 267.519531 160.808594 267.109375 164.21875 C 262.074219 206.277344 226.320312 238.878906 182.964844 238.878906 C 139.605469 238.878906 103.855469 206.277344 98.820312 164.222656 C 98.410156 160.808594 95.53125 158.234375 92.097656 158.234375 C 88.046875 158.234375 84.886719 161.773438 85.367188 165.800781 C 91.1875 214.605469 132.660156 252.445312 182.964844 252.445312 C 233.269531 252.445312 274.742188 214.605469 280.5625 165.800781 C 281.039062 161.773438 277.878906 158.234375 273.832031 158.234375 " fill-opacity="1" fill-rule="nonzero"/></g><g fill="rgb(0%, 0%, 0%)" fill-opacity="1"><g transform="translate(27.06951, 306.370885)"><g><path d="M 35.957031 -35.746094 L 27.441406 -35.746094 L 20.027344 -15.664062 L 18.082031 -10.039062 L 16.136719 -15.664062 L 8.777344 -35.746094 L 0.261719 -35.746094 L 14.71875 0 L 21.5 0 Z M 35.957031 -35.746094 "/></g></g></g><g fill="rgb(0%, 0%, 0%)" fill-opacity="1"><g transform="translate(65.598584, 306.370885)"><g><path d="M 2.734375 -31.121094 C 2.734375 -28.597656 4.785156 -26.492188 7.359375 -26.492188 C 9.882812 -26.492188 11.984375 -28.597656 11.984375 -31.121094 C 11.984375 -33.695312 9.882812 -35.746094 7.359375 -35.746094 C 4.785156 -35.746094 2.734375 -33.695312 2.734375 -31.121094 Z M 11.300781 0 L 11.300781 -23.183594 L 3.417969 -23.183594 L 3.417969 0 Z M 11.300781 0 "/></g></g></g><g fill="rgb(0%, 0%, 0%)" fill-opacity="1"><g transform="translate(82.629443, 306.370885)"><g><path d="M 16.242188 -17.347656 C 17.453125 -17.347656 18.609375 -16.980469 19.398438 -16.03125 L 19.503906 -16.03125 L 19.503906 -23.183594 C 18.871094 -23.496094 17.820312 -23.707031 17.136719 -23.707031 C 14.246094 -23.707031 12.246094 -22.078125 11.039062 -20.34375 L 11.039062 -23.183594 L 3.152344 -23.183594 L 3.152344 0 L 11.039062 0 L 11.039062 -11.566406 C 11.039062 -14.351562 13.300781 -17.347656 16.242188 -17.347656 Z M 16.242188 -17.347656 "/></g></g></g><g fill="rgb(0%, 0%, 0%)" fill-opacity="1"><g transform="translate(104.969148, 306.370885)"><g><path d="M 13.089844 -17.085938 L 17.292969 -17.085938 L 17.292969 -23.183594 L 13.089844 -23.183594 L 13.089844 -32.011719 L 5.257812 -32.011719 L 5.257812 -23.183594 L 1.050781 -23.183594 L 1.050781 -17.085938 L 5.257812 -17.085938 L 5.257812 0 L 13.089844 0 Z M 13.089844 -17.085938 "/></g></g></g><g fill="rgb(0%, 0%, 0%)" fill-opacity="1"><g transform="translate(125.626848, 306.370885)"><g><path d="M 2.628906 -9.988281 C 2.628906 -3.730469 5.152344 0.527344 11.355469 0.527344 C 14.402344 0.527344 16.875 -0.839844 18.449219 -2.839844 L 18.449219 0 L 26.335938 0 L 26.335938 -23.183594 L 18.449219 -23.183594 L 18.449219 -11.566406 C 18.449219 -8.464844 16.507812 -5.78125 14.035156 -5.78125 C 11.566406 -5.78125 10.511719 -7.308594 10.511719 -9.988281 L 10.511719 -23.183594 L 2.628906 -23.183594 Z M 2.628906 -9.988281 "/></g></g></g><g fill="rgb(0%, 0%, 0%)" fill-opacity="1"><g transform="translate(157.427877, 306.370885)"><g><path d="M 21.289062 -11.566406 C 21.289062 -8.515625 18.925781 -5.78125 15.769531 -5.78125 C 12.617188 -5.78125 10.25 -8.515625 10.25 -11.566406 C 10.25 -14.613281 12.617188 -17.347656 15.769531 -17.347656 C 18.925781 -17.347656 21.289062 -14.613281 21.289062 -11.566406 Z M 29.175781 -23.128906 L 21.289062 -23.128906 L 21.289062 -20.34375 C 19.238281 -22.867188 16.296875 -23.707031 13.351562 -23.707031 C 6.78125 -23.707031 1.839844 -17.976562 1.839844 -11.566406 C 1.839844 -5.152344 6.78125 0.527344 13.351562 0.527344 C 16.296875 0.527344 19.710938 -0.421875 21.289062 -2.785156 L 21.289062 0 L 29.175781 0 Z M 29.175781 -23.128906 "/></g></g></g><g fill="rgb(0%, 0%, 0%)" fill-opacity="1"><g transform="translate(192.067303, 306.370885)"><g><path d="M 11.039062 0 L 11.039062 -39.425781 L 3.152344 -39.425781 L 3.152344 0 Z M 11.039062 0 "/></g></g></g><g fill="rgb(0%, 0%, 0%)" fill-opacity="1"><g transform="translate(208.572523, 306.370885)"><g/></g></g><g fill="rgb(0%, 0%, 0%)" fill-opacity="1"><g transform="translate(224.026489, 306.370885)"><g><path d="M 23.339844 -14.351562 L 23.339844 -21.5 L 11.039062 -21.5 L 11.039062 -28.597656 L 23.867188 -28.597656 L 23.867188 -35.746094 L 3.152344 -35.746094 L 3.152344 0 L 11.039062 0 L 11.039062 -14.351562 Z M 23.339844 -14.351562 "/></g></g></g><g fill="rgb(0%, 0%, 0%)" fill-opacity="1"><g transform="translate(252.831439, 306.370885)"><g><path d="M 21.289062 -11.566406 C 21.289062 -8.515625 18.925781 -5.78125 15.769531 -5.78125 C 12.617188 -5.78125 10.25 -8.515625 10.25 -11.566406 C 10.25 -14.613281 12.617188 -17.347656 15.769531 -17.347656 C 18.925781 -17.347656 21.289062 -14.613281 21.289062 -11.566406 Z M 29.175781 -23.128906 L 21.289062 -23.128906 L 21.289062 -20.34375 C 19.238281 -22.867188 16.296875 -23.707031 13.351562 -23.707031 C 6.78125 -23.707031 1.839844 -17.976562 1.839844 -11.566406 C 1.839844 -5.152344 6.78125 0.527344 13.351562 0.527344 C 16.296875 0.527344 19.710938 -0.421875 21.289062 -2.785156 L 21.289062 0 L 29.175781 0 Z M 29.175781 -23.128906 "/></g></g></g><g fill="rgb(0%, 0%, 0%)" fill-opacity="1"><g transform="translate(287.470865, 306.370885)"><g><path d="M 16.242188 -17.347656 C 17.453125 -17.347656 18.609375 -16.980469 19.398438 -16.03125 L 19.503906 -16.03125 L 19.503906 -23.183594 C 18.871094 -23.496094 17.820312 -23.707031 17.136719 -23.707031 C 14.246094 -23.707031 12.246094 -22.078125 11.039062 -20.34375 L 11.039062 -23.183594 L 3.152344 -23.183594 L 3.152344 0 L 11.039062 0 L 11.039062 -11.566406 C 11.039062 -14.351562 13.300781 -17.347656 16.242188 -17.347656 Z M 16.242188 -17.347656 "/></g></g></g><g fill="rgb(0%, 0%, 0%)" fill-opacity="1"><g transform="translate(309.810579, 306.370885)"><g><path d="M 26.546875 -11.773438 C 26.546875 -14.402344 27.753906 -17.347656 30.804688 -17.347656 C 33.433594 -17.347656 34.167969 -15.085938 34.167969 -12.828125 L 34.167969 0 L 42.054688 0 L 42.054688 -12.828125 C 42.054688 -18.820312 39.164062 -23.707031 33.117188 -23.707031 C 29.488281 -23.707031 26.914062 -22.65625 24.652344 -19.765625 C 23.023438 -22.394531 20.394531 -23.707031 17.453125 -23.707031 C 14.875 -23.707031 12.617188 -22.339844 11.039062 -20.34375 L 11.039062 -23.183594 L 3.152344 -23.183594 L 3.152344 0 L 11.039062 0 L 11.039062 -11.566406 C 11.039062 -13.878906 12.617188 -17.347656 15.296875 -17.347656 C 17.925781 -17.347656 18.660156 -15.085938 18.660156 -12.828125 L 18.660156 0 L 26.546875 0 Z M 26.546875 -11.773438 "/></g></g></g><g fill="rgb(13.328552%, 53.729248%, 26.669312%)" fill-opacity="1"><g transform="translate(83.054898, 337.871298)"><g><path d="M 11.953125 0 L 9.328125 0 L 7.859375 -5.703125 C 7.796875 -5.910156 7.695312 -6.332031 7.5625 -6.96875 C 7.4375 -7.601562 7.363281 -8.03125 7.34375 -8.25 C 7.320312 -7.976562 7.25 -7.546875 7.125 -6.953125 C 7.007812 -6.367188 6.914062 -5.945312 6.84375 -5.6875 L 5.390625 0 L 2.765625 0 L 0 -10.859375 L 2.265625 -10.859375 L 3.65625 -4.9375 C 3.894531 -3.84375 4.070312 -2.894531 4.1875 -2.09375 C 4.21875 -2.375 4.285156 -2.804688 4.390625 -3.390625 C 4.492188 -3.984375 4.59375 -4.445312 4.6875 -4.78125 L 6.265625 -10.859375 L 8.453125 -10.859375 L 10.03125 -4.78125 C 10.101562 -4.507812 10.191406 -4.09375 10.296875 -3.53125 C 10.398438 -2.96875 10.476562 -2.488281 10.53125 -2.09375 C 10.582031 -2.476562 10.660156 -2.957031 10.765625 -3.53125 C 10.878906 -4.113281 10.976562 -4.582031 11.0625 -4.9375 L 12.453125 -10.859375 L 14.71875 -10.859375 Z M 11.953125 0 "/></g></g></g><g fill="rgb(13.328552%, 53.729248%, 26.669312%)" fill-opacity="1"><g transform="translate(99.401443, 337.871298)"><g><path d="M 7.625 0 L 1.375 0 L 1.375 -10.859375 L 7.625 -10.859375 L 7.625 -8.984375 L 3.671875 -8.984375 L 3.671875 -6.59375 L 7.34375 -6.59375 L 7.34375 -4.703125 L 3.671875 -4.703125 L 3.671875 -1.90625 L 7.625 -1.90625 Z M 7.625 0 "/></g></g></g><g fill="rgb(13.328552%, 53.729248%, 26.669312%)" fill-opacity="1"><g transform="translate(109.562363, 337.871298)"><g/></g></g><g fill="rgb(13.328552%, 53.729248%, 26.669312%)" fill-opacity="1"><g transform="translate(115.156467, 337.871298)"><g><path d="M 10.109375 0 L 7.484375 0 L 4.640625 -4.578125 L 3.671875 -3.875 L 3.671875 0 L 1.375 0 L 1.375 -10.859375 L 3.671875 -10.859375 L 3.671875 -5.890625 L 4.578125 -7.171875 L 7.515625 -10.859375 L 10.078125 -10.859375 L 6.28125 -6.0625 Z M 10.109375 0 "/></g></g></g><g fill="rgb(13.328552%, 53.729248%, 26.669312%)" fill-opacity="1"><g transform="translate(126.899066, 337.871298)"><g><path d="M 11 0 L 8.078125 0 L 3.34375 -8.21875 L 3.28125 -8.21875 C 3.375 -6.769531 3.421875 -5.734375 3.421875 -5.109375 L 3.421875 0 L 1.375 0 L 1.375 -10.859375 L 4.265625 -10.859375 L 8.984375 -2.734375 L 9.046875 -2.734375 C 8.972656 -4.140625 8.9375 -5.132812 8.9375 -5.71875 L 8.9375 -10.859375 L 11 -10.859375 Z M 11 0 "/></g></g></g><g fill="rgb(13.328552%, 53.729248%, 26.669312%)" fill-opacity="1"><g transform="translate(140.906509, 337.871298)"><g><path d="M 11.234375 -5.453125 C 11.234375 -3.648438 10.785156 -2.265625 9.890625 -1.296875 C 8.992188 -0.328125 7.71875 0.15625 6.0625 0.15625 C 4.394531 0.15625 3.113281 -0.328125 2.21875 -1.296875 C 1.332031 -2.265625 0.890625 -3.65625 0.890625 -5.46875 C 0.890625 -7.269531 1.332031 -8.644531 2.21875 -9.59375 C 3.113281 -10.550781 4.398438 -11.03125 6.078125 -11.03125 C 7.742188 -11.03125 9.019531 -10.550781 9.90625 -9.59375 C 10.789062 -8.632812 11.234375 -7.253906 11.234375 -5.453125 Z M 3.296875 -5.453125 C 3.296875 -4.234375 3.523438 -3.316406 3.984375 -2.703125 C 4.453125 -2.085938 5.144531 -1.78125 6.0625 -1.78125 C 7.894531 -1.78125 8.8125 -3.003906 8.8125 -5.453125 C 8.8125 -7.898438 7.898438 -9.125 6.078125 -9.125 C 5.160156 -9.125 4.46875 -8.8125 4 -8.1875 C 3.53125 -7.570312 3.296875 -6.660156 3.296875 -5.453125 Z M 3.296875 -5.453125 "/></g></g></g><g fill="rgb(13.328552%, 53.729248%, 26.669312%)" fill-opacity="1"><g transform="translate(154.654052, 337.871298)"><g><path d="M 11.953125 0 L 9.328125 0 L 7.859375 -5.703125 C 7.796875 -5.910156 7.695312 -6.332031 7.5625 -6.96875 C 7.4375 -7.601562 7.363281 -8.03125 7.34375 -8.25 C 7.320312 -7.976562 7.25 -7.546875 7.125 -6.953125 C 7.007812 -6.367188 6.914062 -5.945312 6.84375 -5.6875 L 5.390625 0 L 2.765625 0 L 0 -10.859375 L 2.265625 -10.859375 L 3.65625 -4.9375 C 3.894531 -3.84375 4.070312 -2.894531 4.1875 -2.09375 C 4.21875 -2.375 4.285156 -2.804688 4.390625 -3.390625 C 4.492188 -3.984375 4.59375 -4.445312 4.6875 -4.78125 L 6.265625 -10.859375 L 8.453125 -10.859375 L 10.03125 -4.78125 C 10.101562 -4.507812 10.191406 -4.09375 10.296875 -3.53125 C 10.398438 -2.96875 10.476562 -2.488281 10.53125 -2.09375 C 10.582031 -2.476562 10.660156 -2.957031 10.765625 -3.53125 C 10.878906 -4.113281 10.976562 -4.582031 11.0625 -4.9375 L 12.453125 -10.859375 L 14.71875 -10.859375 Z M 11.953125 0 "/></g></g></g><g fill="rgb(13.328552%, 53.729248%, 26.669312%)" fill-opacity="1"><g transform="translate(176.5947, 337.871298)"><g><path d="M 8.015625 0 L 7.234375 -2.59375 L 3.265625 -2.59375 L 2.484375 0 L 0 0 L 3.828125 -10.90625 L 6.65625 -10.90625 L 10.5 0 Z M 6.6875 -4.515625 C 5.957031 -6.859375 5.546875 -8.179688 5.453125 -8.484375 C 5.359375 -8.796875 5.289062 -9.039062 5.25 -9.21875 C 5.09375 -8.582031 4.625 -7.015625 3.84375 -4.515625 Z M 6.6875 -4.515625 "/></g></g></g><g fill="rgb(13.328552%, 53.729248%, 26.669312%)" fill-opacity="1"><g transform="translate(188.730858, 337.871298)"><g><path d="M 5.484375 -6.09375 L 9.796875 -6.09375 L 9.796875 -0.46875 C 9.097656 -0.238281 8.441406 -0.078125 7.828125 0.015625 C 7.210938 0.109375 6.582031 0.15625 5.9375 0.15625 C 4.300781 0.15625 3.050781 -0.320312 2.1875 -1.28125 C 1.320312 -2.25 0.890625 -3.640625 0.890625 -5.453125 C 0.890625 -7.203125 1.390625 -8.566406 2.390625 -9.546875 C 3.390625 -10.523438 4.78125 -11.015625 6.5625 -11.015625 C 7.675781 -11.015625 8.75 -10.789062 9.78125 -10.34375 L 9.015625 -8.515625 C 8.222656 -8.910156 7.398438 -9.109375 6.546875 -9.109375 C 5.546875 -9.109375 4.742188 -8.769531 4.140625 -8.09375 C 3.546875 -7.425781 3.25 -6.53125 3.25 -5.40625 C 3.25 -4.226562 3.488281 -3.328125 3.96875 -2.703125 C 4.457031 -2.078125 5.164062 -1.765625 6.09375 -1.765625 C 6.570312 -1.765625 7.054688 -1.816406 7.546875 -1.921875 L 7.546875 -4.1875 L 5.484375 -4.1875 Z M 5.484375 -6.09375 "/></g></g></g><g fill="rgb(13.328552%, 53.729248%, 26.669312%)" fill-opacity="1"><g transform="translate(201.386816, 337.871298)"><g><path d="M 3.671875 -6.046875 L 4.40625 -6.046875 C 5.132812 -6.046875 5.671875 -6.164062 6.015625 -6.40625 C 6.367188 -6.644531 6.546875 -7.023438 6.546875 -7.546875 C 6.546875 -8.066406 6.367188 -8.4375 6.015625 -8.65625 C 5.660156 -8.875 5.113281 -8.984375 4.375 -8.984375 L 3.671875 -8.984375 Z M 3.671875 -4.171875 L 3.671875 0 L 1.375 0 L 1.375 -10.859375 L 4.53125 -10.859375 C 6.007812 -10.859375 7.101562 -10.585938 7.8125 -10.046875 C 8.519531 -9.515625 8.875 -8.703125 8.875 -7.609375 C 8.875 -6.972656 8.695312 -6.40625 8.34375 -5.90625 C 7.988281 -5.40625 7.488281 -5.015625 6.84375 -4.734375 C 8.476562 -2.285156 9.546875 -0.707031 10.046875 0 L 7.484375 0 L 4.890625 -4.171875 Z M 3.671875 -4.171875 "/></g></g></g><g fill="rgb(13.328552%, 53.729248%, 26.669312%)" fill-opacity="1"><g transform="translate(213.070005, 337.871298)"><g><path d="M 1.375 0 L 1.375 -10.859375 L 3.671875 -10.859375 L 3.671875 0 Z M 1.375 0 "/></g></g></g><g fill="rgb(13.328552%, 53.729248%, 26.669312%)" fill-opacity="1"><g transform="translate(219.74826, 337.871298)"><g><path d="M 5.984375 -9.109375 C 5.117188 -9.109375 4.445312 -8.78125 3.96875 -8.125 C 3.488281 -7.476562 3.25 -6.570312 3.25 -5.40625 C 3.25 -2.976562 4.160156 -1.765625 5.984375 -1.765625 C 6.742188 -1.765625 7.664062 -1.957031 8.75 -2.34375 L 8.75 -0.40625 C 7.863281 -0.03125 6.867188 0.15625 5.765625 0.15625 C 4.179688 0.15625 2.972656 -0.320312 2.140625 -1.28125 C 1.304688 -2.25 0.890625 -3.628906 0.890625 -5.421875 C 0.890625 -6.546875 1.09375 -7.53125 1.5 -8.375 C 1.914062 -9.226562 2.503906 -9.878906 3.265625 -10.328125 C 4.035156 -10.785156 4.941406 -11.015625 5.984375 -11.015625 C 7.035156 -11.015625 8.09375 -10.757812 9.15625 -10.25 L 8.421875 -8.375 C 8.015625 -8.570312 7.601562 -8.742188 7.1875 -8.890625 C 6.78125 -9.035156 6.378906 -9.109375 5.984375 -9.109375 Z M 5.984375 -9.109375 "/></g></g></g><g fill="rgb(13.328552%, 53.729248%, 26.669312%)" fill-opacity="1"><g transform="translate(231.08244, 337.871298)"><g><path d="M 10.203125 -10.859375 L 10.203125 -3.828125 C 10.203125 -3.023438 10.019531 -2.320312 9.65625 -1.71875 C 9.300781 -1.113281 8.785156 -0.648438 8.109375 -0.328125 C 7.429688 -0.00390625 6.628906 0.15625 5.703125 0.15625 C 4.304688 0.15625 3.222656 -0.203125 2.453125 -0.921875 C 1.679688 -1.640625 1.296875 -2.617188 1.296875 -3.859375 L 1.296875 -10.859375 L 3.59375 -10.859375 L 3.59375 -4.21875 C 3.59375 -3.375 3.757812 -2.753906 4.09375 -2.359375 C 4.425781 -1.972656 4.984375 -1.78125 5.765625 -1.78125 C 6.515625 -1.78125 7.054688 -1.976562 7.390625 -2.375 C 7.734375 -2.769531 7.90625 -3.390625 7.90625 -4.234375 L 7.90625 -10.859375 Z M 10.203125 -10.859375 "/></g></g></g><g fill="rgb(13.328552%, 53.729248%, 26.669312%)" fill-opacity="1"><g transform="translate(244.22107, 337.871298)"><g><path d="M 1.375 0 L 1.375 -10.859375 L 3.671875 -10.859375 L 3.671875 -1.90625 L 8.078125 -1.90625 L 8.078125 0 Z M 1.375 0 "/></g></g></g><g fill="rgb(13.328552%, 53.729248%, 26.669312%)" fill-opacity="1"><g transform="translate(254.456244, 337.871298)"><g><path d="M 5.5625 0 L 3.25 0 L 3.25 -8.953125 L 0.296875 -8.953125 L 0.296875 -10.859375 L 8.515625 -10.859375 L 8.515625 -8.953125 L 5.5625 -8.953125 Z M 5.5625 0 "/></g></g></g><g fill="rgb(13.328552%, 53.729248%, 26.669312%)" fill-opacity="1"><g transform="translate(264.906764, 337.871298)"><g><path d="M 10.203125 -10.859375 L 10.203125 -3.828125 C 10.203125 -3.023438 10.019531 -2.320312 9.65625 -1.71875 C 9.300781 -1.113281 8.785156 -0.648438 8.109375 -0.328125 C 7.429688 -0.00390625 6.628906 0.15625 5.703125 0.15625 C 4.304688 0.15625 3.222656 -0.203125 2.453125 -0.921875 C 1.679688 -1.640625 1.296875 -2.617188 1.296875 -3.859375 L 1.296875 -10.859375 L 3.59375 -10.859375 L 3.59375 -4.21875 C 3.59375 -3.375 3.757812 -2.753906 4.09375 -2.359375 C 4.425781 -1.972656 4.984375 -1.78125 5.765625 -1.78125 C 6.515625 -1.78125 7.054688 -1.976562 7.390625 -2.375 C 7.734375 -2.769531 7.90625 -3.390625 7.90625 -4.234375 L 7.90625 -10.859375 Z M 10.203125 -10.859375 "/></g></g></g><g fill="rgb(13.328552%, 53.729248%, 26.669312%)" fill-opacity="1"><g transform="translate(278.045394, 337.871298)"><g><path d="M 3.671875 -6.046875 L 4.40625 -6.046875 C 5.132812 -6.046875 5.671875 -6.164062 6.015625 -6.40625 C 6.367188 -6.644531 6.546875 -7.023438 6.546875 -7.546875 C 6.546875 -8.066406 6.367188 -8.4375 6.015625 -8.65625 C 5.660156 -8.875 5.113281 -8.984375 4.375 -8.984375 L 3.671875 -8.984375 Z M 3.671875 -4.171875 L 3.671875 0 L 1.375 0 L 1.375 -10.859375 L 4.53125 -10.859375 C 6.007812 -10.859375 7.101562 -10.585938 7.8125 -10.046875 C 8.519531 -9.515625 8.875 -8.703125 8.875 -7.609375 C 8.875 -6.972656 8.695312 -6.40625 8.34375 -5.90625 C 7.988281 -5.40625 7.488281 -5.015625 6.84375 -4.734375 C 8.476562 -2.285156 9.546875 -0.707031 10.046875 0 L 7.484375 0 L 4.890625 -4.171875 Z M 3.671875 -4.171875 "/></g></g></g><g fill="rgb(13.328552%, 53.729248%, 26.669312%)" fill-opacity="1"><g transform="translate(289.728583, 337.871298)"><g><path d="M 7.625 0 L 1.375 0 L 1.375 -10.859375 L 7.625 -10.859375 L 7.625 -8.984375 L 3.671875 -8.984375 L 3.671875 -6.59375 L 7.34375 -6.59375 L 7.34375 -4.703125 L 3.671875 -4.703125 L 3.671875 -1.90625 L 7.625 -1.90625 Z M 7.625 0 "/></g></g></g></svg>